Coordinates
nRows=145
nColumns=2
inDegrees=yes
endheader
time	ankle_angle_r	
4.36565	  9.735107	
4.43722	  9.796143	
4.50878	  9.658813	
4.58035	  9.735107	
4.65192	  9.735107	
4.72349	  9.826660	
4.79506	  9.674072	
4.86662	  9.750366	
4.93819	  9.719849	
5.00976	  9.689331	
5.08133	  9.750366	
5.1529	  9.689331	
5.22446	  9.750366	
5.29603	  9.689331	
5.3676	  9.643555	
5.43917	  9.735107	
5.51074	  9.765625	
5.5823	  9.765625	
5.65387	  9.674072	
5.72544	  9.750366	
5.79701	  9.826660	
5.86858	  9.735107	
5.94014	  9.780884	
6.01171	  9.750366	
6.08328	  9.841919	
6.15485	  9.719849	
6.22642	  9.704590	
6.29798	  9.826660	
6.36955	  9.765625	
6.44112	  9.780884	
6.51269	  9.735107	
6.58426	  9.857178	
6.65582	  9.857178	
6.72739	  9.750366	
6.79896	  9.796143	
6.87053	  9.780884	
6.9421	  9.811401	
7.01366	  9.704590	
7.08523	  9.735107	
7.1568	  9.857178	
7.22837	  9.719849	
7.29994	  9.719849	
7.3715	  9.658813	
7.44307	  9.750366	
7.51464	  9.750366	
7.58621	  9.658813	
7.65778	  9.735107	
7.72934	  9.689331	
7.80091	  9.750366	
7.87248	  9.704590	
7.94405	  9.780884	
8.01562	  9.841919	
8.08718	  9.750366	
8.15875	  9.780884	
8.23032	  9.780884	
8.30189	  9.872437	
8.37346	  9.750366	
8.44502	  9.704590	
8.51659	  9.841919	
8.58816	  9.796143	
8.65973	  9.811401	
8.7313	  9.750366	
8.80286	  9.826660	
8.87443	  9.872437	
8.946	  9.750366	
9.01757	  9.765625	
9.08914	  9.750366	
9.1607	  9.811401	
9.23227	  9.704590	
9.30384	  9.704590	
9.37541	  9.826660	
9.44698	  9.704590	
9.51854	  9.750366	
9.59011	  9.658813	
9.66168	  9.719849	
9.73325	  9.826660	
9.80482	  9.643555	
9.87638	  9.750366	
9.94795	  9.735107	
10.0195	  9.750366	
10.0911	  9.674072	
10.1627	  9.674072	
10.2342	  9.857178	
10.3058	  9.765625	
10.3774	  9.796143	
10.4489	  9.735107	
10.5205	  9.872437	
10.5921	  9.750366	
10.6636	  9.704590	
10.7352	  9.857178	
10.8068	  9.811401	
10.8783	  9.796143	
10.9499	  9.735107	
11.0215	  9.841919	
11.093	  9.872437	
11.1646	  9.750366	
11.2362	  9.796143	
11.3077	  9.765625	
11.3793	  9.841919	
11.4509	  9.704590	
11.5224	  9.689331	
11.594	  9.841919	
11.6656	  9.658813	
11.7372	  9.750366	
11.8087	  9.674072	
11.8803	  9.796143	
11.9519	  9.811401	
12.0234	  9.658813	
12.095	  9.735107	
12.1666	  9.689331	
12.2381	  9.735107	
12.3097	  9.613037	
12.3813	  9.674072	
12.4528	  9.826660	
12.5244	  9.689331	
12.596	  9.735107	
12.6675	  9.719849	
12.7391	  9.826660	
12.8107	  9.689331	
12.8822	  9.582520	
12.9538	  9.765625	
13.0254	  9.719849	
13.0969	  9.750366	
13.1685	  9.735107	
13.2401	  9.780884	
13.3116	  9.765625	
13.3832	  9.719849	
13.4548	  9.765625	
13.5264	  9.765625	
13.5979	  9.857178	
13.6695	  9.658813	
13.7411	  9.628296	
13.8126	  9.841919	
13.8842	  9.750366	
13.9558	  9.704590	
14.0273	  9.750366	
14.0989	  9.780884	
14.1705	  9.780884	
14.242	  9.689331	
14.3136	  9.780884	
14.3852	  9.735107	
14.4567	  9.765625	
14.5283	  9.674072	
14.5999	  9.719849	
14.6714	  9.780884	
